<svg width="18" height="20" viewBox="0 0 18 20" fill="none" xmlns="http://www.w3.org/2000/svg">
<path d="M16.1879 4.41351L15.4871 6.11375C15.3274 6.49266 14.8305 6.49266 14.6708 6.11375L13.97 4.4038L12.4174 3.63626C12.3399 3.59762 12.2743 3.5354 12.2282 3.45702C12.1822 3.37863 12.1577 3.2874 12.1577 3.1942C12.1577 3.101 12.1822 3.00977 12.2282 2.93139C12.2743 2.85301 12.3399 2.79078 12.4174 2.75214L13.9788 1.98461L14.6797 0.284372C14.715 0.199561 14.7718 0.127655 14.8434 0.0772326C14.915 0.0268103 14.9983 0 15.0834 0C15.1685 0 15.2518 0.0268103 15.3234 0.0772326C15.3949 0.127655 15.4518 0.199561 15.4871 0.284372L16.1879 1.99432L17.7405 2.76186C17.8179 2.8005 17.8836 2.86272 17.9297 2.9411C17.9757 3.01949 18.0002 3.11072 18.0002 3.20392C18.0002 3.29712 17.9757 3.38835 17.9297 3.46673C17.8836 3.54512 17.8179 3.60734 17.7405 3.64598L16.1879 4.41351ZM13.97 15.5865L14.6708 13.8863C14.8305 13.5073 15.3274 13.5073 15.4871 13.8863L16.1879 15.5962L17.7405 16.3637C17.8179 16.4024 17.8836 16.4646 17.9297 16.543C17.9757 16.6214 18.0002 16.7126 18.0002 16.8058C18.0002 16.899 17.9757 16.9902 17.9297 17.0686C17.8836 17.147 17.8179 17.2092 17.7405 17.2479L16.1791 18.0154L15.4782 19.7156C15.4429 19.8004 15.3861 19.8723 15.3145 19.9228C15.2429 19.9732 15.1596 20 15.0745 20C14.9894 20 14.9061 19.9732 14.8345 19.9228C14.7629 19.8723 14.7061 19.8004 14.6708 19.7156L13.97 18.0057L12.4174 17.2381C12.3399 17.1995 12.2743 17.1373 12.2282 17.0589C12.1822 16.9805 12.1577 16.8893 12.1577 16.7961C12.1577 16.7029 12.1822 16.6116 12.2282 16.5333C12.2743 16.4549 12.3399 16.3927 12.4174 16.354L13.97 15.5865Z" fill="#0067C5"/>
<path fill-rule="evenodd" clip-rule="evenodd" d="M8.56888 12.5832L11.8692 10.9413C12.6056 10.5692 12.6056 9.42275 11.8692 9.06133L8.56888 7.41938L7.06954 3.8042C6.73862 2.9978 5.68287 2.9978 5.35283 3.8042L3.85349 7.41841L0.552273 9.06035C-0.184091 9.43246 -0.184091 10.5789 0.552273 10.9403L3.8526 12.5823L5.35194 16.1975C5.69174 17.0039 6.73862 17.0039 7.06865 16.1975L8.56799 12.5832H8.56888ZM7.22923 8.88644L9.4676 10.0008L7.22745 11.1152L6.21074 13.5684L5.19314 11.1152L2.953 10.0008L5.19314 8.88644L6.21074 6.43325L7.22923 8.88644Z" fill="#0067C5"/>
</svg>
