<svg width="18" height="18" viewBox="0 0 18 18" fill="none" xmlns="http://www.w3.org/2000/svg">
<path fill-rule="evenodd" clip-rule="evenodd" d="M9.00008 0.666672C4.40008 0.666672 0.666748 4.40001 0.666748 9.00001C0.666748 13.6 4.40008 17.3333 9.00008 17.3333C13.6001 17.3333 17.3334 13.6 17.3334 9.00001C17.3334 4.40001 13.6001 0.666672 9.00008 0.666672ZM14.3001 13.025C13.1084 11.575 10.2167 11.0833 9.00008 11.0833C7.78341 11.0833 4.89175 11.575 3.70008 13.025C2.85008 11.9083 2.33341 10.5167 2.33341 9.00001C2.33341 5.32501 5.32508 2.33334 9.00008 2.33334C12.6751 2.33334 15.6667 5.32501 15.6667 9.00001C15.6667 10.5167 15.1501 11.9083 14.3001 13.025ZM6.08342 6.91667C6.08342 5.30001 7.38341 4.00001 9.00008 4.00001C10.6167 4.00001 11.9167 5.30001 11.9167 6.91667C11.9167 8.53334 10.6167 9.83334 9.00008 9.83334C7.38341 9.83334 6.08342 8.53334 6.08342 6.91667Z" fill="#00B39B"/>
</svg>
