<svg width="14" height="12" viewBox="0 0 14 12" fill="none" xmlns="http://www.w3.org/2000/svg">
<path d="M11.7328 1.48472L5.00467 8.21288L2.28886 5.47793L2.28824 5.47731C2.07989 5.26896 1.82337 5.15965 1.53091 5.15965C1.23844 5.15965 0.981924 5.26896 0.773573 5.47731C0.566979 5.68391 0.454613 5.93739 0.445835 6.22707C0.436891 6.5222 0.543042 6.78182 0.753202 6.99198L4.25691 10.4957C4.4636 10.7024 4.71613 10.8133 5.00405 10.8133C5.29198 10.8133 5.54451 10.7024 5.7512 10.4957L9.49935 6.74753L13.2475 2.99939C13.4558 2.79103 13.5652 2.53452 13.5652 2.24205C13.5652 1.94959 13.4558 1.69307 13.2475 1.48472C13.0391 1.27637 12.7826 1.16705 12.4902 1.16705C12.1977 1.16705 11.9412 1.27637 11.7328 1.48472Z" fill="white" stroke="white" stroke-width="0.5"/>
</svg>
