<svg width="20" height="20" viewBox="0 0 20 20" fill="none" xmlns="http://www.w3.org/2000/svg">
<path d="M9.99995 20.0001C8.66784 20.007 7.34865 19.7387 6.12503 19.2121C4.93503 18.7053 3.85294 17.9755 2.93709 17.0621C2.02381 16.1466 1.29405 15.0648 0.787126 13.8751C0.260865 12.6514 -0.00705635 11.3322 0.000141264 10.0001C0.000141264 8.61713 0.263136 7.32013 0.788127 6.11313C1.29726 4.92819 2.02684 3.85076 2.93809 2.93813C3.85363 2.02485 4.93537 1.29508 6.12503 0.788129C7.34865 0.261515 8.66784 -0.00675285 9.99995 0.000129131C11.3829 0.000129131 12.6799 0.263129 13.8869 0.788129C15.0718 1.29727 16.1492 2.02687 17.0618 2.93813C17.973 3.85078 18.7026 4.92821 19.2118 6.11313C19.7408 7.34025 20.0091 8.66388 19.9998 10.0001C20.0066 11.3323 19.7384 12.6515 19.2118 13.8751C18.705 15.0652 17.9752 16.1473 17.0618 17.0631C16.1492 17.9744 15.0718 18.704 13.8869 19.2131C12.6597 19.7418 11.3361 20.0098 9.99995 20.0001ZM9.99995 17.9501C10.4329 17.3501 10.8079 16.7251 11.1249 16.0751C11.4419 15.4251 11.6999 14.7331 11.8999 14.0001H8.09999C8.29999 14.7331 8.55798 15.4251 8.87497 16.0751C9.19197 16.7251 9.56696 17.3501 9.99995 17.9501ZM7.4 17.5501C7.10001 17.0001 6.83701 16.4301 6.61302 15.8371C6.38546 15.2377 6.1974 14.6241 6.05003 14.0001H3.10008C3.57537 14.8236 4.18861 15.5593 4.91305 16.1751C5.64238 16.7942 6.48785 17.2617 7.4 17.5501ZM12.5999 17.5501C13.5121 17.2617 14.3575 16.7942 15.0869 16.1751C15.8113 15.5593 16.4246 14.8236 16.8998 14.0001H13.9499C13.7999 14.6331 13.6129 15.2461 13.3869 15.8371C13.1637 16.4253 12.9008 16.9977 12.5999 17.5501ZM2.2501 12.0001H5.65004C5.54942 11.3382 5.49928 10.6696 5.50004 10.0001C5.49928 9.33062 5.54942 8.66203 5.65004 8.00013H2.2501C2.08235 8.65351 1.99834 9.32556 2.0001 10.0001C1.99834 10.6747 2.08235 11.3468 2.2501 12.0001ZM7.65 12.0001H12.3499C12.4505 11.3382 12.5007 10.6696 12.4999 10.0001C12.5007 9.33062 12.4505 8.66203 12.3499 8.00013H7.65C7.54938 8.66203 7.49924 9.33062 7.5 10.0001C7.49924 10.6696 7.54938 11.3382 7.65 12.0001ZM14.3499 12.0001H17.7498C17.9176 11.3468 18.0016 10.6747 17.9998 10.0001C18.0016 9.32556 17.9176 8.65349 17.7498 8.00013H14.3499C14.4505 8.66203 14.5006 9.33062 14.4999 10.0001C14.5006 10.6696 14.4505 11.3382 14.3499 12.0001ZM13.9499 6.00013H16.8998C16.4246 5.17661 15.8113 4.4409 15.0869 3.82513C14.3575 3.20603 13.512 2.73859 12.5999 2.45013C12.8999 3.00013 13.1629 3.57013 13.3869 4.16213C13.6129 4.75413 13.7999 5.36713 13.9499 6.00013ZM8.09999 6.00013H11.8999C11.6999 5.26713 11.4419 4.57513 11.1249 3.92513C10.8045 3.26895 10.4281 2.64163 9.99995 2.05013C9.56696 2.65013 9.19197 3.27513 8.87497 3.92513C8.55798 4.57513 8.29999 5.26713 8.09999 6.00013ZM3.10008 6.00013H6.05003C6.20003 5.36713 6.38702 4.75413 6.61302 4.16213C6.83801 3.57113 7.10001 3.00013 7.4 2.45013C6.46702 2.75013 5.63704 3.20813 4.91205 3.82513C4.18794 4.44099 3.57503 5.17669 3.10008 6.00013Z" fill="#DA64D5"/>
</svg>
