<svg width="18" height="20" viewBox="0 0 18 20" fill="none" xmlns="http://www.w3.org/2000/svg">
<path d="M11.111 19.9999C11.0133 20.0011 10.9162 19.9829 10.8251 19.9465C10.727 19.9028 10.6386 19.8391 10.5652 19.7593L7.41988 16.524C7.32509 16.4259 7.25083 16.3089 7.20165 16.1801C7.15248 16.0514 7.12944 15.9136 7.13395 15.7754C7.13395 15.4727 7.22961 15.2224 7.41988 15.0267C7.51528 14.9292 7.62906 14.8528 7.75423 14.8022C7.8794 14.7516 8.01331 14.7279 8.14772 14.7326C8.44197 14.7326 8.68527 14.831 8.87555 15.0267L11.111 17.3262L16.2578 12.0321C16.3532 11.9346 16.467 11.8582 16.5922 11.8076C16.7174 11.757 16.8513 11.7333 16.9857 11.7379C17.2799 11.7379 17.5232 11.8363 17.7135 12.0321C17.8083 12.1302 17.8826 12.2472 17.9317 12.376C17.9809 12.5047 18.004 12.6425 17.9994 12.7807C18.004 12.919 17.9809 13.0567 17.9317 13.1855C17.8826 13.3142 17.8083 13.4313 17.7135 13.5294L11.6569 19.7593C11.5834 19.8391 11.495 19.9027 11.397 19.9465C11.3059 19.9829 11.2088 20.0011 11.111 19.9999ZM1.02536 13.9037C0.627129 13.9037 0.337036 13.77 0.155078 13.5026C-0.0268802 13.2353 -0.0487151 12.9058 0.089573 12.5133L4.19663 1.17647C4.31828 0.855613 4.53455 0.579678 4.84648 0.347593C5.1584 0.115508 5.48801 0 5.83425 0C6.18049 0 6.51009 0.115508 6.82202 0.347593C7.13395 0.579678 7.35022 0.855613 7.47187 1.17647L11.5789 12.4331C11.7172 12.8427 11.6912 13.1903 11.5009 13.4759C11.3107 13.7615 10.9987 13.9037 10.5652 13.9037C10.3229 13.9037 10.0931 13.8235 9.87684 13.6631C9.6716 13.5179 9.51306 13.3131 9.42142 13.0748L8.51163 10.3743H3.05289L2.11711 13.1283C2.03081 13.3422 1.88836 13.524 1.68872 13.6759C1.49798 13.8248 1.26482 13.9049 1.02536 13.9037ZM3.78072 8.34222H7.83579L5.86024 2.56684H5.75627L3.78072 8.34222Z" fill="#DE350B"/>
</svg>
