<svg width="18" height="20" viewBox="0 0 18 20" fill="none" xmlns="http://www.w3.org/2000/svg">
<path fill-rule="evenodd" clip-rule="evenodd" d="M4.70715 1.45049L4.47016 1.22535C4.39772 1.16068 4.33999 1.08261 4.30053 0.995936C4.26107 0.909265 4.24071 0.815835 4.24071 0.721405C4.24071 0.626975 4.26107 0.533545 4.30053 0.446874C4.33999 0.360202 4.39772 0.282127 4.47016 0.217459C4.53822 0.148796 4.62035 0.0940848 4.71149 0.0566881C4.80264 0.0192915 4.90087 0 5.00015 0C5.09943 0 5.19767 0.0192915 5.28881 0.0566881C5.37995 0.0940848 5.46208 0.148796 5.53014 0.217459L7.12113 1.72882C7.32112 1.91881 7.42112 2.143 7.42112 2.40043C7.42112 2.65787 7.32112 2.88206 7.12113 3.07205L5.53114 4.58341C5.46307 4.65222 5.38088 4.70706 5.28964 4.74455C5.19841 4.78203 5.10006 4.80137 5.00065 4.80137C4.90125 4.80137 4.80289 4.78203 4.71166 4.74455C4.62042 4.70706 4.53823 4.65222 4.47016 4.58341C4.39788 4.51875 4.34028 4.44073 4.30092 4.35415C4.26155 4.26757 4.24124 4.17425 4.24124 4.07994C4.24124 3.98562 4.26155 3.89231 4.30092 3.80573C4.34028 3.71914 4.39788 3.64112 4.47016 3.57647L4.70715 3.35038H2.00019V16.6496H5.00015C5.28315 16.6496 5.52014 16.7408 5.71314 16.9232C5.90414 17.1046 6.00014 17.3307 6.00014 17.5996C6.00014 17.8684 5.90414 18.0935 5.71314 18.2769C5.62019 18.3662 5.50898 18.4364 5.38635 18.4833C5.26373 18.5302 5.13229 18.5527 5.00015 18.5495H2.00019C1.45019 18.5495 0.980198 18.3633 0.587202 17.9919C0.398019 17.8181 0.248329 17.6094 0.147371 17.3785C0.0464131 17.1476 -0.00367106 16.8996 0.000209422 16.6496V3.35038C0.000209422 2.82791 0.196207 2.38144 0.587202 2.00906C0.770041 1.82917 0.989757 1.68679 1.23278 1.59072C1.47581 1.49465 1.73698 1.44692 2.00019 1.45049H4.70715ZM16 18.5495H13.2931L13.5301 18.7756C13.6023 18.8403 13.6599 18.9183 13.6993 19.0049C13.7387 19.0914 13.759 19.1848 13.759 19.2791C13.759 19.3734 13.7387 19.4667 13.6993 19.5533C13.6599 19.6399 13.6023 19.7179 13.5301 19.7825C13.462 19.8512 13.3799 19.9059 13.2887 19.9433C13.1976 19.9807 13.0993 20 13.0001 20C12.9008 20 12.8025 19.9807 12.7114 19.9433C12.6203 19.9059 12.5381 19.8512 12.4701 19.7825L10.8791 18.2721C10.6791 18.0812 10.5791 17.857 10.5791 17.5996C10.5791 17.3421 10.6791 17.1179 10.8791 16.928L12.4691 15.4166C12.5371 15.3478 12.6193 15.2929 12.7106 15.2555C12.8018 15.218 12.9002 15.1986 12.9996 15.1986C13.099 15.1986 13.1973 15.218 13.2886 15.2555C13.3798 15.2929 13.462 15.3478 13.5301 15.4166C13.6023 15.4812 13.6599 15.5593 13.6993 15.6458C13.7387 15.7324 13.759 15.8257 13.759 15.9201C13.759 16.0144 13.7387 16.1077 13.6993 16.1943C13.6599 16.2809 13.6023 16.3589 13.5301 16.4235L13.2931 16.6496H16V3.35038H13.0001C12.8679 3.35359 12.7365 3.33106 12.6139 3.28417C12.4912 3.23728 12.38 3.16703 12.2871 3.07775C12.193 2.98948 12.1191 2.88384 12.0697 2.76734C12.0203 2.65084 11.9966 2.52597 12.0001 2.40043C12.0001 2.1316 12.0961 1.90646 12.2871 1.72407C12.3799 1.63462 12.4911 1.56419 12.6137 1.51714C12.7364 1.47009 12.8678 1.4474 13.0001 1.45049H16C16.55 1.45049 17.02 1.63668 17.413 2.00906C17.804 2.38049 18 2.82791 18 3.35038V16.6496C18 17.1721 17.804 17.6186 17.413 17.9919C17.2301 18.1716 17.0103 18.3138 16.7673 18.4097C16.5243 18.5056 16.2632 18.5532 16 18.5495ZM13.712 11.6273C13.6192 11.7164 13.5082 11.7866 13.3857 11.8335C13.2633 11.8804 13.132 11.903 13.0001 11.8999H5.00015C4.86801 11.9031 4.73657 11.8806 4.61395 11.8337C4.49133 11.7868 4.38011 11.7165 4.28716 11.6273C4.19317 11.539 4.11922 11.4333 4.06986 11.3168C4.0205 11.2003 3.99678 11.0755 4.00016 10.9499C4.00016 10.6811 4.09616 10.456 4.28716 10.2736C4.37999 10.1841 4.49116 10.1136 4.6138 10.0666C4.73643 10.0195 4.86793 9.99686 5.00015 10H13.0001C13.2831 10 13.5201 10.0912 13.712 10.2736C13.904 10.455 14 10.6811 14 10.9499C14 11.2188 13.904 11.4439 13.712 11.6273ZM8.71211 14.4771C8.61927 14.5663 8.50822 14.6364 8.38578 14.6833C8.26334 14.7302 8.13209 14.7528 8.00012 14.7497H5.00015C4.86801 14.7529 4.73657 14.7304 4.61395 14.6835C4.49133 14.6366 4.38011 14.5664 4.28716 14.4771C4.19317 14.3888 4.11922 14.2831 4.06986 14.1667C4.0205 14.0502 3.99678 13.9253 4.00016 13.7998C4.00016 13.5309 4.09616 13.3058 4.28716 13.1234C4.37999 13.0339 4.49116 12.9635 4.6138 12.9164C4.73643 12.8694 4.86793 12.8467 5.00015 12.8498H8.00012C8.28311 12.8498 8.52011 12.941 8.71311 13.1234C8.90411 13.3049 9.0001 13.5309 9.0001 13.7998C9.0001 14.0686 8.90411 14.2938 8.71311 14.4771H8.71211ZM13.712 8.77742C13.6192 8.86658 13.5082 8.93677 13.3857 8.98365C13.2633 9.03054 13.132 9.05313 13.0001 9.05005H5.00015C4.86801 9.05326 4.73657 9.03073 4.61395 8.98384C4.49133 8.93695 4.38011 8.8667 4.28716 8.77742C4.19317 8.68912 4.11922 8.58347 4.06986 8.46698C4.0205 8.3505 3.99678 8.22564 4.00016 8.10011C4.00016 7.83127 4.09616 7.60614 4.28716 7.42375C4.38003 7.33429 4.4912 7.26387 4.61383 7.21681C4.73646 7.16976 4.86794 7.14708 5.00015 7.15016H13.0001C13.2831 7.15016 13.5201 7.24136 13.712 7.42375C13.904 7.60519 14 7.83127 14 8.10011C14 8.36894 13.904 8.59408 13.712 8.77742Z" fill="#178733"/>
</svg>
