<svg width="19" height="20" viewBox="0 0 19 20" fill="none" xmlns="http://www.w3.org/2000/svg">
<path fill-rule="evenodd" clip-rule="evenodd" d="M10.6685 2.22222H2.53369V17.7778H10.6685V15.3789C10.6685 14.7289 11.2582 14.2744 11.846 14.3733C12.3066 14.4511 12.7022 14.8578 12.7022 15.3678V17.7778C12.7022 18.3671 12.4879 18.9324 12.1065 19.3491C11.7251 19.7659 11.2078 20 10.6685 20H2.53369C1.99432 20 1.47705 19.7659 1.09565 19.3491C0.714263 18.9324 0.5 18.3671 0.5 17.7778V2.22222C0.5 1.63285 0.714263 1.06762 1.09565 0.650874C1.47705 0.234126 1.99432 0 2.53369 0H10.6685C11.2078 0 11.7251 0.234126 12.1065 0.650874C12.4879 1.06762 12.7022 1.63285 12.7022 2.22222V3.52222C12.7022 4.03111 12.3066 4.43778 11.846 4.51556C11.2582 4.61444 10.6685 4.16 10.6685 3.51111V2.22222ZM17.1254 9.40444C17.1254 10.1 16.9455 10.7489 16.6343 11.3L18.2857 13.1044C18.4247 13.2615 18.5016 13.472 18.5 13.6905C18.4983 13.909 18.4182 14.1181 18.2769 14.2726C18.1356 14.4272 17.9443 14.515 17.7443 14.517C17.5444 14.519 17.3517 14.4351 17.2078 14.2833L15.5554 12.4789C14.9328 12.8985 14.2003 13.0805 13.4728 12.9963C12.7453 12.9122 12.0639 12.5666 11.5354 12.0139C11.007 11.4611 10.6613 10.7323 10.5526 9.94182C10.4439 9.15131 10.5784 8.34374 10.9348 7.64568C11.2913 6.94763 11.8497 6.39855 12.5224 6.08451C13.1952 5.77047 13.9443 5.70923 14.6523 5.91038C15.3603 6.11153 15.9872 6.5637 16.4348 7.19602C16.8824 7.82834 17.1253 8.60506 17.1254 9.40444ZM13.8207 11.3489C14.2926 11.3489 14.7453 11.144 15.079 10.7794C15.4127 10.4147 15.6002 9.92014 15.6002 9.40444C15.6002 8.88875 15.4127 8.39417 15.079 8.02951C14.7453 7.66486 14.2926 7.46 13.8207 7.46C13.3487 7.46 12.8961 7.66486 12.5624 8.02951C12.2287 8.39417 12.0412 8.88875 12.0412 9.40444C12.0412 9.92014 12.2287 10.4147 12.5624 10.7794C12.8961 11.144 13.3487 11.3489 13.8207 11.3489Z" fill="#F27C0E"/>
</svg>
