<svg width="19" height="20" viewBox="0 0 19 20" fill="none" xmlns="http://www.w3.org/2000/svg">
<path d="M1.62533 19.9995C1.47659 20.005 1.32865 19.9653 1.19069 19.8827C1.05272 19.8001 0.927658 19.6765 0.823225 19.5195C0.717633 19.3648 0.634519 19.1797 0.578995 18.9757C0.52347 18.7716 0.496709 18.5529 0.500356 18.3329C0.500356 17.8613 0.608354 17.4663 0.823225 17.1463C0.927658 16.9893 1.05272 16.8657 1.19069 16.7831C1.32865 16.7006 1.47659 16.6608 1.62533 16.6663H10.6252C10.9435 16.6663 11.2101 16.8263 11.4273 17.1463C11.6421 17.4646 11.7501 17.8613 11.7501 18.3329C11.7501 18.8046 11.6421 19.1995 11.4273 19.5195C11.3228 19.6765 11.1977 19.8 11.0598 19.8826C10.9218 19.9651 10.7739 20.0049 10.6252 19.9995H1.62533ZM1.62533 11.6666C1.47667 11.6723 1.32878 11.6328 1.19082 11.5506C1.05286 11.4683 0.927754 11.345 0.823225 11.1883C0.717493 11.0334 0.634298 10.848 0.578769 10.6437C0.523241 10.4393 0.496554 10.2202 0.500356 10C0.500356 9.52837 0.608354 9.13339 0.823225 8.81174C0.927754 8.65502 1.05286 8.53172 1.19082 8.44946C1.32878 8.36719 1.47667 8.3277 1.62533 8.33343H17.375C17.6934 8.33343 17.96 8.49342 18.176 8.81174C18.392 9.13172 18.5 9.52837 18.5 10C18.5 10.4717 18.392 10.8666 18.176 11.1883C18.0716 11.3447 17.9466 11.4678 17.8089 11.5501C17.6711 11.6323 17.5235 11.672 17.375 11.6666H1.62533ZM1.62533 3.33369C1.47667 3.33932 1.32881 3.29979 1.19086 3.21752C1.05291 3.13526 0.927794 3.01201 0.823225 2.85538C0.717493 2.70047 0.634298 2.51512 0.578769 2.31075C0.523241 2.10639 0.496554 1.88734 0.500356 1.66711C0.500356 1.19547 0.608354 0.800486 0.823225 0.478836C0.927794 0.322201 1.05291 0.198954 1.19086 0.116692C1.32881 0.0344294 1.47667 -0.00510448 1.62533 0.000527263H17.375C17.6934 0.000527263 17.96 0.160519 18.176 0.478836C18.392 0.79882 18.5 1.19547 18.5 1.66711C18.5 2.13875 18.392 2.53373 18.176 2.85538C18.0716 3.01181 17.9466 3.13494 17.8089 3.21719C17.6711 3.29945 17.5235 3.33909 17.375 3.33369H1.62533Z" fill="#9B5FFC"/>
</svg>
