<svg width="23" height="16" viewBox="0 0 23 16" fill="none" xmlns="http://www.w3.org/2000/svg">
<path d="M14.5 16.0004C12.2667 16.0004 10.375 15.2254 8.825 13.6754C7.275 12.1254 6.5 10.2337 6.5 8.00037C6.5 5.7837 7.275 3.8962 8.825 2.33787C10.375 0.779533 12.2667 0.000366211 14.5 0.000366211C16.7167 0.000366211 18.6042 0.779533 20.1625 2.33787C21.7208 3.8962 22.5 5.7837 22.5 8.00037C22.5 10.2337 21.7208 12.1254 20.1625 13.6754C18.6042 15.2254 16.7167 16.0004 14.5 16.0004ZM14.5 14.0004C16.1667 14.0004 17.5833 13.417 18.75 12.2504C19.9167 11.0837 20.5 9.66703 20.5 8.00037C20.5 6.3337 19.9167 4.91703 18.75 3.75037C17.5833 2.5837 16.1667 2.00037 14.5 2.00037C12.8333 2.00037 11.4167 2.5837 10.25 3.75037C9.08333 4.91703 8.5 6.3337 8.5 8.00037C8.5 9.66703 9.08333 11.0837 10.25 12.2504C11.4167 13.417 12.8333 14.0004 14.5 14.0004ZM15.5 7.60037V5.00037C15.5 4.71703 15.4042 4.47953 15.2125 4.28787C15.0208 4.0962 14.7833 4.00037 14.5 4.00037C14.2167 4.00037 13.9792 4.0962 13.7875 4.28787C13.5958 4.47953 13.5 4.71703 13.5 5.00037V8.02537C13.5 8.1587 13.5292 8.28787 13.5875 8.41287C13.6458 8.53787 13.7167 8.64203 13.8 8.72537L16.075 11.0004C16.275 11.2004 16.5125 11.3004 16.7875 11.3004C17.0625 11.3004 17.3 11.2004 17.5 11.0004C17.7 10.8004 17.8 10.5629 17.8 10.2879C17.8 10.0129 17.7 9.77537 17.5 9.57537L15.5 7.60037ZM2.5 5.00037C2.21667 5.00037 1.97917 4.90453 1.7875 4.71287C1.59583 4.5212 1.5 4.2837 1.5 4.00037C1.5 3.71703 1.59583 3.47953 1.7875 3.28787C1.97917 3.0962 2.21667 3.00037 2.5 3.00037H4.5C4.78333 3.00037 5.02083 3.0962 5.2125 3.28787C5.40417 3.47953 5.5 3.71703 5.5 4.00037C5.5 4.2837 5.40417 4.5212 5.2125 4.71287C5.02083 4.90453 4.78333 5.00037 4.5 5.00037H2.5ZM1.5 9.00037C1.21667 9.00037 0.979167 8.90453 0.7875 8.71287C0.595833 8.5212 0.5 8.2837 0.5 8.00037C0.5 7.71703 0.595833 7.47953 0.7875 7.28787C0.979167 7.0962 1.21667 7.00037 1.5 7.00037H4.5C4.78333 7.00037 5.02083 7.0962 5.2125 7.28787C5.40417 7.47953 5.5 7.71703 5.5 8.00037C5.5 8.2837 5.40417 8.5212 5.2125 8.71287C5.02083 8.90453 4.78333 9.00037 4.5 9.00037H1.5ZM2.5 13.0004C2.21667 13.0004 1.97917 12.9045 1.7875 12.7129C1.59583 12.5212 1.5 12.2837 1.5 12.0004C1.5 11.717 1.59583 11.4795 1.7875 11.2879C1.97917 11.0962 2.21667 11.0004 2.5 11.0004H4.5C4.78333 11.0004 5.02083 11.0962 5.2125 11.2879C5.40417 11.4795 5.5 11.717 5.5 12.0004C5.5 12.2837 5.40417 12.5212 5.2125 12.7129C5.02083 12.9045 4.78333 13.0004 4.5 13.0004H2.5Z" fill="#FFCC8F"/>
</svg>
